<svg width="1024" height="1024" viewBox="0 0 1024 1024" fill="none" xmlns="http://www.w3.org/2000/svg">
<g clip-path="url(#clip0_113_8)">
<rect width="1024" height="1024" rx="199" fill="#232327"/>
<path d="M625.781 622.752L534.179 662.48C534.179 662.48 557.373 709.887 569.44 728.694C581.508 747.5 597.571 760.664 599.765 783.859C601.96 807.053 590.754 878.36 580.803 897.088C572.261 913.23 562.78 926.708 570.537 937.756C578.295 948.805 622.02 949.51 628.602 938.305C633.617 929.842 635.027 903.043 636.124 893.092C637.221 883.14 642.706 844.039 647.173 813.087C649.994 793.418 656.576 780.567 657.673 767.325C658.77 754.082 637.691 736.53 630.091 723.208C612.538 692.256 625.781 622.752 625.781 622.752Z" fill="#8A5B51"/>
<path d="M720.674 535.068L749.902 554.344C749.902 554.344 791.276 555.441 800.679 516.261C807.966 485.78 800.679 454.122 786.888 463.29C783.596 465.484 770.902 506.858 770.902 506.858L720.674 535.068Z" fill="#FFEAC3"/>
<path d="M313.597 329.296L290.403 331.49C290.403 331.49 279.589 336.27 271.283 338.464C262.742 340.736 249.578 342.225 247.383 348.886C245.189 355.468 245.66 391.278 253.417 402.092C258.902 409.849 262.272 422.465 292.048 421.917C321.825 421.368 363.199 420.271 363.199 420.271L350.504 340.893L313.597 329.296Z" fill="#FFEAC3"/>
<path d="M443.204 271.388C443.204 271.388 425.024 246.548 390.468 250.231C366.333 252.817 343.374 270.84 343.374 270.84C343.374 270.84 319.631 227.272 298.709 210.738C277.787 194.204 232.495 175.476 224.816 185.898C217.059 196.398 249.656 239.418 265.641 260.34C281.627 281.262 309.209 311.116 309.209 311.116C309.209 311.116 300.903 325.456 288.836 331.803C301.53 333.449 317.672 337.68 329.818 355.076C342.669 373.49 351.523 401.778 347.449 420.506C343.844 437.04 323 462.82 325.743 516.261C328.486 569.781 340.083 602.3 350.034 618.834C359.986 635.367 384.199 665.693 384.199 665.693C384.199 665.693 386.393 726.343 385.845 758.392C385.296 790.362 379.262 848.27 373.699 876.401C368.214 904.532 361.553 917.775 354.971 926.081C348.389 934.387 336.4 952.174 356.93 956.954C372.367 960.559 395.091 958.208 400.419 956.563C411.547 953.115 408.49 934.857 407.942 924.905C407.393 914.954 420.636 835.341 423.927 801.724C427.14 769.44 433.487 729.242 435.681 710.514C438.267 688.809 441.245 678.7 445.241 679.249C450.726 679.954 451.667 687.555 451.118 705.734C450.569 724.07 445.946 778.844 443.752 810.266C441.558 841.688 432.939 918.167 431.215 924.279C429.569 930.312 413.349 946.768 415.073 959.775C416.562 970.981 429.961 975.761 447.043 975.761C464.126 975.761 476.036 971.137 477.212 961.813C478.7 949.667 476.271 941.047 475.723 927.805C475.174 914.562 486.772 823.587 488.26 805.564C489.514 790.049 502.208 721.563 504.402 712.708C506.596 703.854 507.615 693.667 509.574 688.965C511.063 685.282 551.34 691.159 585.504 674.626C619.669 658.092 641.218 635.994 641.218 635.994C641.218 635.994 665.509 668.514 677.655 683.402C689.801 698.29 732.82 755.649 734.465 776.101C736.111 796.474 738.305 869.897 738.305 890.271C738.305 910.644 737.757 926.159 736.111 930.547C734.465 934.935 715.189 960.872 720.674 970.275C726.159 979.679 741.439 982.029 758.914 980.227C777.015 978.347 785.086 970.667 787.985 959.305C793.157 939.088 785.007 855.792 786.183 813.322C787.28 770.851 793.548 756.354 789.16 745.306C784.772 734.257 763.223 708.32 756.641 675.252C750.059 642.185 756.093 617.345 756.093 588.117C756.093 558.889 754.447 541.258 754.447 541.258C754.447 541.258 776.544 532.873 785.634 516.418C794.724 499.884 798.015 462.899 789.787 461.801C781.481 460.704 769.727 483.037 764.947 488.287C756.876 497.142 740.656 500.981 740.656 500.981C740.656 500.981 722.477 451.928 668.957 441.977C615.438 432.025 550.634 459.137 516.705 465.719C482.54 472.302 461.54 476.768 456.055 466.816C450.57 456.865 457.7 437.04 469.297 417.764C480.895 398.487 486.772 385.793 488.417 372.55C490.063 359.307 490.219 345.516 490.219 345.516C490.219 345.516 529.948 338.307 554.239 311.352C578.53 284.318 600.001 227.507 607.21 213.167C614.419 198.827 620.453 196.085 617.162 188.327C613.87 180.57 569.206 178.376 541.623 186.133C516.548 193.186 480.973 215.91 466.633 234.089C452.058 252.112 443.204 271.388 443.204 271.388Z" fill="#D17856"/>
<path d="M475.017 307.982C463.89 297.325 465.458 278.911 483.48 256.892C501.503 234.873 523.443 221.238 543.425 213.481C559.567 207.212 581.9 201.1 586.836 205.723C589.109 207.917 575.317 235.813 558.784 262.534C543.582 287.138 524.697 305.71 509.966 311.273C496.958 316.131 483.48 316.053 475.017 307.982Z" fill="#FFEAC3"/>
<path d="M248.794 207.447C246.208 212.227 261.253 230.014 282.175 257.127C298.082 277.735 308.739 292.937 316.732 294.269C321.668 295.131 326.762 290.351 325.038 282.672C321.982 269.429 310.541 253.444 295.261 237.772C277.552 219.749 251.38 202.667 248.794 207.447Z" fill="#FFEAC3"/>
<path d="M411.311 328.747C410.449 341.677 405.434 349.904 393.367 350.845C383.651 351.628 375.423 339.953 375.423 328.199C375.423 316.445 383.651 308.139 393.367 308.139C403.084 308.139 412.173 316.993 411.311 328.747Z" fill="#0A070B"/>
<path d="M256.473 394.412C256.473 394.412 278.257 380.621 278.257 369.337C278.257 360.483 269.794 353.274 261.175 348.102C256.395 345.281 249.343 343.4 245.973 347.789C242.682 352.177 237.981 363.774 241.037 382.815C244.093 401.856 253.966 405.461 253.966 405.461C253.966 405.461 248.481 415.413 282.645 414.551C316.81 413.689 317.359 405.148 316.575 400.211C315.713 395.274 295.026 395.509 284.056 397.155C267.835 399.662 256.473 394.412 256.473 394.412Z" fill="#2C2A32"/>
<path d="M420.558 263.709C420.558 263.709 438.189 221.238 442.107 204.939C445.084 192.324 445.398 169.678 445.711 156.122C445.789 151.028 442.42 146.718 442.655 138.491C442.968 129.166 448.062 119.841 460.286 119.449C471.648 119.136 478.23 127.207 478.779 136.297C479.327 145.7 474.939 150.636 474.626 156.122C473.764 170.775 472.118 199.689 472.118 199.689C472.118 199.689 494.451 178.767 496.958 172.42C499.466 166.073 499.701 134.103 499.701 127.755C499.701 121.408 499.701 112.554 499.701 112.554C499.701 112.554 493.197 103.307 493.354 95.1579C493.432 88.6541 498.29 78.8592 509.104 78.6241C520.779 78.3107 525.716 85.9899 526.5 94.0609C527.205 102.132 523.208 109.498 523.208 109.498L522.111 143.427C522.111 143.427 534.492 127.129 539.507 120.233C544.444 113.337 550.007 102.289 550.007 102.289C550.007 102.289 547.186 93.1206 548.362 84.1093C549.459 75.9599 554.944 67.0269 566.306 66.7135C577.355 66.4784 583.388 75.0196 583.388 84.1093C583.388 97.9005 575.082 107.304 575.082 107.304C575.082 107.304 554.709 147.267 538.959 167.954C527.518 182.999 519.682 194.126 514.667 197.182C509.731 200.238 478.23 217.869 463.89 239.104C454.722 252.66 443.204 271.388 443.204 271.388C443.204 271.388 437.797 279.302 427.767 275.541C419.774 272.485 420.558 263.709 420.558 263.709Z" fill="#BD9178"/>
<path d="M230.301 95.4714C230.301 95.4714 246.052 135.435 257.022 157.219C267.992 179.003 284.291 201.335 284.291 201.335C284.291 201.335 306.78 218.182 314.068 226.958C327.31 242.944 342.512 272.485 342.512 272.485L360.613 259.791L344.471 231.973C344.471 231.973 344.158 203.529 344.158 192.559C344.158 183.469 344.471 167.484 344.471 167.484C344.471 167.484 349.878 159.099 350.27 150.636C350.74 141.077 345.646 131.36 334.284 130.811C323.549 130.263 317.437 139.588 316.653 147.894C315.792 156.2 320.258 163.644 320.258 163.644L319.161 208.622C319.161 208.622 313.127 197.339 310.855 194.283C308.582 191.227 303.254 178.611 302 176.338C299.493 171.637 304.508 132.222 304.508 125.875C304.508 119.528 306.153 101.035 306.153 101.035C306.153 101.035 311.482 92.9639 311.403 83.9526C311.325 75.8816 306.545 66.9486 296.75 66.2434C285.702 65.3814 279.903 73.2957 278.571 80.5831C276.925 89.5161 280.765 97.117 280.765 97.117C280.765 97.117 279.041 137.315 276.377 136.532C273.321 135.67 254.828 87.4788 254.828 87.4788C254.828 87.4788 259.059 77.4488 255.925 64.8329C253.026 53.1574 243.544 45.7916 229.988 49.6312C216.353 53.5492 213.689 67.8106 218.156 78.8592C222.152 88.8892 230.301 95.4714 230.301 95.4714Z" fill="#BD9178"/>
</g>
<defs>
<clipPath id="clip0_113_8">
<rect width="1024" height="1024" rx="199" fill="white"/>
</clipPath>
</defs>
</svg>
